<svg width="32" height="32" viewBox="0 0 32 32" fill="none" xmlns="http://www.w3.org/2000/svg">
  <defs>
    <linearGradient id="shield-gradient" x1="0%" y1="0%" x2="100%" y2="100%">
      <stop offset="0%" style="stop-color:#00F5FF;stop-opacity:1" />
      <stop offset="100%" style="stop-color:#7928CA;stop-opacity:1" />
    </linearGradient>
    <linearGradient id="ai-gradient" x1="0%" y1="0%" x2="100%" y2="100%">
      <stop offset="0%" style="stop-color:#7928CA;stop-opacity:1" />
      <stop offset="100%" style="stop-color:#00F5FF;stop-opacity:1" />
    </linearGradient>
  </defs>
  
  <!-- Background circle -->
  <circle cx="16" cy="16" r="15" fill="url(#shield-gradient)" opacity="0.1"/>
  
  <!-- Main shield -->
  <path d="M16 3L24 7V16C24 21.5 20 26 16 29C12 26 8 21.5 8 16V7L16 3Z" 
        fill="url(#shield-gradient)" 
        stroke="url(#shield-gradient)" 
        stroke-width="1"/>
  
  <!-- AI nodes -->
  <circle cx="16" cy="12" r="1.5" fill="#ffffff" opacity="0.9"/>
  <circle cx="12" cy="16" r="1" fill="#ffffff" opacity="0.7"/>
  <circle cx="20" cy="16" r="1" fill="#ffffff" opacity="0.7"/>
  <circle cx="16" cy="20" r="1" fill="#ffffff" opacity="0.7"/>
  
  <!-- Neural connections -->
  <path d="M16 13.5L12 16M16 13.5L20 16M16 18.5L12 16M16 18.5L20 16" 
        stroke="#ffffff" 
        stroke-width="0.5" 
        opacity="0.6"/>
</svg>